<?xml version="1.0" encoding="UTF-8" standalone="no"?>
<svg
   version="1.1"
   x="0px"
   y="0px"
   viewBox="0 0 512 512"
   enable-background="new 0 0 100 100"
   xml:space="preserve"
   id="svg18"
   sodipodi:docname="cut.svg"
   width="512"
   height="512"
   inkscape:version="1.1 (c68e22c387, 2021-05-23)"
   xmlns:inkscape="http://www.inkscape.org/namespaces/inkscape"
   xmlns:sodipodi="http://sodipodi.sourceforge.net/DTD/sodipodi-0.dtd"
   xmlns="http://www.w3.org/2000/svg"
   xmlns:svg="http://www.w3.org/2000/svg"><defs
     id="defs22" /><sodipodi:namedview
     id="namedview20"
     pagecolor="#ffffff"
     bordercolor="#666666"
     borderopacity="1.0"
     inkscape:pageshadow="2"
     inkscape:pageopacity="0.0"
     inkscape:pagecheckerboard="0"
     showgrid="false"
     fit-margin-top="0"
     fit-margin-left="0"
     fit-margin-right="0"
     fit-margin-bottom="0"
     inkscape:zoom="0.622"
     inkscape:cx="172.02572"
     inkscape:cy="266.88103"
     inkscape:window-width="1368"
     inkscape:window-height="850"
     inkscape:window-x="-6"
     inkscape:window-y="-6"
     inkscape:window-maximized="1"
     inkscape:current-layer="svg18"
     width="512px" /><g
     id="g12"
     transform="matrix(3.9773412,0,0,3.9773412,57.130951,60.579306)"
     style="fill:#f5f6fa;fill-opacity:1"><polygon
       points="60.225,60.926 60.668,68.645 63.4,62.293 "
       id="polygon2"
       style="fill:#f5f6fa;fill-opacity:1" /><polygon
       points="66.581,60.016 60.691,73.15 70.657,64.999 "
       id="polygon4"
       style="fill:#f5f6fa;fill-opacity:1" /><path
       d="m 72.532,72.234 v 9.656 l -21.781,-0.014 5.951,-4.761 c 0.118,-0.095 0.188,-0.239 0.188,-0.392 0,-0.631 -0.078,-1.275 -0.23,-1.918 -0.148,-0.619 -0.372,-1.258 -0.666,-1.896 -0.182,-0.396 -0.396,-0.806 -0.641,-1.22 0.25,-0.422 0.465,-0.824 0.65,-1.224 0.298,-0.64 0.523,-1.278 0.672,-1.896 0.152,-0.637 0.23,-1.279 0.23,-1.908 V 53.523 c 0,-0.631 -0.078,-1.276 -0.23,-1.918 -0.146,-0.621 -0.371,-1.257 -0.666,-1.896 -0.184,-0.401 -0.402,-0.815 -0.648,-1.233 0.226,-0.414 0.438,-0.812 0.623,-1.209 0.297,-0.637 0.522,-1.275 0.673,-1.896 0.151,-0.636 0.229,-1.278 0.229,-1.907 V 30.321 c 0,-0.633 -0.078,-1.279 -0.23,-1.918 -0.147,-0.619 -0.371,-1.256 -0.665,-1.896 -0.185,-0.401 -0.402,-0.816 -0.649,-1.235 0.227,-0.414 0.438,-0.812 0.623,-1.21 0.297,-0.64 0.523,-1.278 0.672,-1.896 0.152,-0.635 0.23,-1.277 0.23,-1.908 V 8.811 L 56.868,8.673 C 56.87,7.985 56.873,7.449 56.875,7.033 L 56.909,7.032 C 56.907,6.982 56.904,6.74 56.902,6.471 c 0,-0.022 0,-0.044 0,-0.066 C 56.918,5.879 56.919,5.114 56.921,4 56.921,3.868 56.869,3.74 56.775,3.646 56.682,3.553 56.555,3.5 56.421,3.5 H 43.512 c -0.276,0 -0.5,0.224 -0.5,0.5 v 16.288 c 0,0.628 0.078,1.271 0.23,1.908 0.149,0.62 0.375,1.258 0.672,1.896 0.185,0.397 0.402,0.806 0.648,1.219 -0.24,0.402 -0.452,0.799 -0.634,1.185 -0.3,0.639 -0.529,1.277 -0.68,1.897 -0.156,0.642 -0.236,1.288 -0.237,1.92 v 13.151 c 0,0.628 0.078,1.27 0.23,1.907 0.149,0.62 0.375,1.258 0.672,1.896 0.188,0.406 0.408,0.817 0.667,1.25 -0.238,0.4 -0.451,0.797 -0.632,1.183 -0.301,0.641 -0.53,1.278 -0.68,1.897 -0.156,0.642 -0.236,1.286 -0.237,1.92 l 10e-4,11.445 -10e-4,0.127 c 0,0.003 0,0.008 0,0.01 v 1.565 c 0,0.63 0.077,1.271 0.229,1.908 0.149,0.62 0.375,1.257 0.672,1.896 0.184,0.396 0.402,0.805 0.649,1.221 -0.248,0.412 -0.466,0.819 -0.65,1.213 -0.301,0.64 -0.53,1.277 -0.68,1.896 -0.156,0.64 -0.236,1.288 -0.237,1.927 0,0.151 0.069,0.295 0.188,0.392 l 5.952,4.761 -21.781,0.014 V 72.236 H 8.155 v 22.531 l 41.974,-0.015 41.717,0.015 V 72.234 Z M 44.799,18.724 c 0,-3.709 0,-7.419 0,-11.129 0,0.025 0,-0.102 0,-0.454 0,-0.358 0,-0.948 0,-1.852 3.444,0 6.889,0 10.333,0 -0.011,7.689 -0.021,-4.278 -0.032,7.782 -0.185,0.332 -0.388,0.664 -0.605,0.996 -0.396,0.6 -0.846,1.2 -1.331,1.801 -0.485,0.601 -1.009,1.202 -1.55,1.803 -0.543,0.601 -1.104,1.201 -1.667,1.802 -0.563,0.601 -1.124,1.202 -1.667,1.803 -0.543,0.601 -1.067,1.201 -1.555,1.802 -0.283,0.35 -0.554,0.698 -0.795,1.029 -0.281,-0.499 -0.528,-1.018 -0.72,-1.558 -0.133,-0.373 -0.239,-0.757 -0.31,-1.146 -0.066,-0.368 -0.101,-0.741 -0.101,-1.114 0,-0.521 0,-1.044 0,-1.565 z m -10e-4,23.175 c 0,-1.471 0,-2.94 0,-4.411 0.186,-0.331 0.39,-0.662 0.609,-0.993 0.398,-0.601 0.849,-1.201 1.337,-1.802 0.487,-0.601 1.011,-1.202 1.555,-1.802 0.543,-0.601 1.105,-1.201 1.667,-1.802 0.562,-0.601 1.124,-1.202 1.666,-1.802 0.542,-0.601 1.065,-1.201 1.552,-1.802 0.273,-0.339 0.535,-0.678 0.783,-1.017 0.282,0.507 0.531,1.032 0.723,1.579 0.133,0.376 0.238,0.762 0.31,1.154 0.067,0.371 0.103,0.747 0.103,1.124 0,0.518 0,1.036 0,1.554 0,1.478 0,2.956 0,4.434 -0.181,0.32 -0.377,0.641 -0.588,0.961 -0.396,0.598 -0.846,1.198 -1.33,1.799 -0.486,0.601 -1.009,1.202 -1.552,1.802 -0.542,0.601 -1.104,1.202 -1.666,1.802 -0.562,0.601 -1.124,1.202 -1.667,1.802 -0.543,0.601 -1.067,1.202 -1.555,1.802 -0.284,0.35 -0.556,0.7 -0.797,1.032 C 45.659,46.804 45.406,46.274 45.21,45.724 45.077,45.35 44.971,44.967 44.9,44.578 44.834,44.21 44.799,43.837 44.799,43.464 44.798,42.942 44.798,42.42 44.798,41.899 Z m 1.966,27.585 c -0.279,0.345 -0.545,0.688 -0.797,1.031 -0.289,-0.509 -0.542,-1.037 -0.737,-1.589 -0.133,-0.372 -0.239,-0.757 -0.31,-1.146 -0.066,-0.368 -0.101,-0.741 -0.101,-1.114 0,-0.521 0,-1.044 0,-1.565 0,-1.47 0,-2.938 0,-4.408 0.186,-0.33 0.389,-0.661 0.609,-0.992 0.398,-0.602 0.849,-1.202 1.336,-1.803 0.487,-0.602 1.012,-1.201 1.555,-1.803 0.543,-0.601 1.105,-1.201 1.667,-1.803 0.562,-0.602 1.124,-1.201 1.667,-1.802 0.541,-0.601 1.064,-1.202 1.55,-1.802 0.274,-0.339 0.536,-0.68 0.784,-1.019 0.283,0.506 0.531,1.031 0.723,1.577 0.132,0.376 0.238,0.762 0.309,1.154 0.066,0.369 0.103,0.746 0.103,1.123 0,0.519 0,1.037 0,1.554 0,1.478 0,2.956 0,4.435 -0.181,0.32 -0.376,0.641 -0.587,0.961 -0.396,0.6 -0.846,1.199 -1.331,1.801 -0.485,0.601 -1.009,1.201 -1.55,1.803 -0.543,0.602 -1.104,1.201 -1.667,1.802 -0.563,0.601 -1.124,1.202 -1.667,1.804 -0.544,0.601 -1.068,1.201 -1.556,1.801 z m 3.909,7.258 c 0.325,-0.35 0.647,-0.7 0.964,-1.049 0.541,-0.602 1.064,-1.201 1.549,-1.803 0.274,-0.339 0.537,-0.679 0.785,-1.018 0.282,0.506 0.53,1.031 0.723,1.578 0.189,0.542 0.324,1.105 0.381,1.68 -1.896,1.518 -3.792,3.034 -5.689,4.551 -0.67,-1.654 -0.246,-2.312 1.287,-3.939 z"
       id="path6"
       style="fill:#f5f6fa;fill-opacity:1" /><polygon
       points="29.249,64.999 39.215,73.15 33.325,60.016 "
       id="polygon8"
       style="fill:#f5f6fa;fill-opacity:1" /><polygon
       points="36.504,62.293 39.237,68.645 39.679,60.927 "
       id="polygon10"
       style="fill:#f5f6fa;fill-opacity:1" /></g></svg>
